<svg xmlns="http://www.w3.org/2000/svg" viewBox="0 0 940 600" role="img" aria-labelledby="title desc" font-family="ui-sans-serif, system-ui, -apple-system, 'Segoe UI', Roboto, Helvetica, Arial">
  <title id="title">Qwen3-Next layer stack with two cache planes: KV plane for attention, state plane for gated DeltaNet</title>
  <desc id="desc">A schematic showing a Qwen3-Next layer stack alongside two parallel cache planes. The layer stack on the left is drawn as twelve horizontal blocks alternating in a 3:1 ratio of pale lavender gated DeltaNet linear-attention blocks and pale teal full softmax-attention blocks. Lavender blocks are annotated with a small purple square representing a fixed-size recurrent state matrix S of shape head dim by head dim. Teal blocks are annotated with a horizontal strip of teal cells representing one KV cache entry per token. To the right two cache planes are drawn. The KV plane shows tokens stacked vertically with KV cells filled at every position. The state plane shows the same token range with sparse purple checkpoint markers at fixed 1024-token boundaries, each holding a snapshot of S. At the bottom a timeline compares the second-turn prefill cost. The KV-plane-only timeline is a long red bar of 27 seconds of full re-prefill. The KV-plus-state-plane timeline is a short green bar of 0.4 seconds of partial replay from the nearest checkpoint.</desc>

  <defs>
    <linearGradient id="bgFade" x1="0" y1="0" x2="0" y2="1">
      <stop offset="0%" stop-color="#0f1729"/>
      <stop offset="100%" stop-color="#0a1020"/>
    </linearGradient>
    <linearGradient id="deltaFill" x1="0" y1="0" x2="0" y2="1">
      <stop offset="0%" stop-color="#a78bfa"/>
      <stop offset="100%" stop-color="#7c63d6"/>
    </linearGradient>
    <linearGradient id="attnFill" x1="0" y1="0" x2="0" y2="1">
      <stop offset="0%" stop-color="#3eb1c8"/>
      <stop offset="100%" stop-color="#2a8aa0"/>
    </linearGradient>
    <linearGradient id="stateChip" x1="0" y1="0" x2="1" y2="1">
      <stop offset="0%" stop-color="#c4b5fd"/>
      <stop offset="100%" stop-color="#8b6fe6"/>
    </linearGradient>
    <linearGradient id="kvChip" x1="0" y1="0" x2="0" y2="1">
      <stop offset="0%" stop-color="#5dd4ee"/>
      <stop offset="100%" stop-color="#2a8aa0"/>
    </linearGradient>
    <linearGradient id="badBar" x1="0" y1="0" x2="1" y2="0">
      <stop offset="0%" stop-color="#e85d75"/>
      <stop offset="100%" stop-color="#b33950"/>
    </linearGradient>
    <linearGradient id="goodBar" x1="0" y1="0" x2="1" y2="0">
      <stop offset="0%" stop-color="#5dbb89"/>
      <stop offset="100%" stop-color="#3f9b6b"/>
    </linearGradient>
  </defs>

  <rect width="940" height="600" fill="url(#bgFade)"/>

  <!-- Header -->
  <text x="36" y="34" fill="#e8edf5" font-size="19" font-weight="700">Qwen3-Next: two cache planes for one layer stack</text>
  <text x="36" y="54" fill="#8ea0b8" font-size="12.5">3:1 hybrid layer pattern · gated DeltaNet carries a fixed-size recurrent state · full attention carries per-token KV</text>

  <!-- ============ LEFT PANEL: Layer stack ============ -->
  <text x="36" y="86" fill="#c8d1e0" font-size="12" font-weight="700">Layer stack (showing 12 of 48 layers)</text>

  <g transform="translate(36, 96)">
    <!-- 12 layers, pattern: D D D A repeating 3 times. Layer 1 at top -->
    <!-- Block size: w=240 h=22, vertical gap 4 -->
    <!-- Row 0: layer 1 - DeltaNet -->
    <g transform="translate(0,0)">
      <rect width="240" height="22" rx="3" fill="url(#deltaFill)" opacity="0.85"/>
      <text x="10" y="15" fill="#1a1230" font-size="11" font-weight="600">L1 · gated DeltaNet</text>
      <rect x="200" y="5" width="12" height="12" rx="2" fill="url(#stateChip)" stroke="#fff" stroke-width="0.4"/>
      <text x="218" y="15" fill="#1a1230" font-size="9.5" font-weight="600">S</text>
    </g>
    <!-- Row 1: layer 2 - DeltaNet -->
    <g transform="translate(0,26)">
      <rect width="240" height="22" rx="3" fill="url(#deltaFill)" opacity="0.85"/>
      <text x="10" y="15" fill="#1a1230" font-size="11" font-weight="600">L2 · gated DeltaNet</text>
      <rect x="200" y="5" width="12" height="12" rx="2" fill="url(#stateChip)" stroke="#fff" stroke-width="0.4"/>
      <text x="218" y="15" fill="#1a1230" font-size="9.5" font-weight="600">S</text>
    </g>
    <!-- Row 2: layer 3 - DeltaNet -->
    <g transform="translate(0,52)">
      <rect width="240" height="22" rx="3" fill="url(#deltaFill)" opacity="0.85"/>
      <text x="10" y="15" fill="#1a1230" font-size="11" font-weight="600">L3 · gated DeltaNet</text>
      <rect x="200" y="5" width="12" height="12" rx="2" fill="url(#stateChip)" stroke="#fff" stroke-width="0.4"/>
      <text x="218" y="15" fill="#1a1230" font-size="9.5" font-weight="600">S</text>
    </g>
    <!-- Row 3: layer 4 - Attention -->
    <g transform="translate(0,78)">
      <rect width="240" height="22" rx="3" fill="url(#attnFill)" opacity="0.9"/>
      <text x="10" y="15" fill="#062b34" font-size="11" font-weight="600">L4 · full attention</text>
      <!-- mini KV strip -->
      <g transform="translate(180,7)">
        <rect width="50" height="9" rx="1" fill="none" stroke="#062b34" stroke-width="0.6"/>
        <rect x="0" y="0" width="6" height="9" fill="url(#kvChip)"/>
        <rect x="7" y="0" width="6" height="9" fill="url(#kvChip)"/>
        <rect x="14" y="0" width="6" height="9" fill="url(#kvChip)"/>
        <rect x="21" y="0" width="6" height="9" fill="url(#kvChip)"/>
        <rect x="28" y="0" width="6" height="9" fill="url(#kvChip)"/>
        <rect x="35" y="0" width="6" height="9" fill="url(#kvChip)"/>
        <rect x="42" y="0" width="6" height="9" fill="url(#kvChip)"/>
      </g>
    </g>
    <!-- Row 4: L5 Delta -->
    <g transform="translate(0,104)">
      <rect width="240" height="22" rx="3" fill="url(#deltaFill)" opacity="0.85"/>
      <text x="10" y="15" fill="#1a1230" font-size="11" font-weight="600">L5 · gated DeltaNet</text>
      <rect x="200" y="5" width="12" height="12" rx="2" fill="url(#stateChip)" stroke="#fff" stroke-width="0.4"/>
      <text x="218" y="15" fill="#1a1230" font-size="9.5" font-weight="600">S</text>
    </g>
    <g transform="translate(0,130)">
      <rect width="240" height="22" rx="3" fill="url(#deltaFill)" opacity="0.85"/>
      <text x="10" y="15" fill="#1a1230" font-size="11" font-weight="600">L6 · gated DeltaNet</text>
      <rect x="200" y="5" width="12" height="12" rx="2" fill="url(#stateChip)" stroke="#fff" stroke-width="0.4"/>
      <text x="218" y="15" fill="#1a1230" font-size="9.5" font-weight="600">S</text>
    </g>
    <g transform="translate(0,156)">
      <rect width="240" height="22" rx="3" fill="url(#deltaFill)" opacity="0.85"/>
      <text x="10" y="15" fill="#1a1230" font-size="11" font-weight="600">L7 · gated DeltaNet</text>
      <rect x="200" y="5" width="12" height="12" rx="2" fill="url(#stateChip)" stroke="#fff" stroke-width="0.4"/>
      <text x="218" y="15" fill="#1a1230" font-size="9.5" font-weight="600">S</text>
    </g>
    <g transform="translate(0,182)">
      <rect width="240" height="22" rx="3" fill="url(#attnFill)" opacity="0.9"/>
      <text x="10" y="15" fill="#062b34" font-size="11" font-weight="600">L8 · full attention</text>
      <g transform="translate(180,7)">
        <rect width="50" height="9" rx="1" fill="none" stroke="#062b34" stroke-width="0.6"/>
        <rect x="0" y="0" width="6" height="9" fill="url(#kvChip)"/>
        <rect x="7" y="0" width="6" height="9" fill="url(#kvChip)"/>
        <rect x="14" y="0" width="6" height="9" fill="url(#kvChip)"/>
        <rect x="21" y="0" width="6" height="9" fill="url(#kvChip)"/>
        <rect x="28" y="0" width="6" height="9" fill="url(#kvChip)"/>
        <rect x="35" y="0" width="6" height="9" fill="url(#kvChip)"/>
        <rect x="42" y="0" width="6" height="9" fill="url(#kvChip)"/>
      </g>
    </g>
    <g transform="translate(0,208)">
      <rect width="240" height="22" rx="3" fill="url(#deltaFill)" opacity="0.85"/>
      <text x="10" y="15" fill="#1a1230" font-size="11" font-weight="600">L9 · gated DeltaNet</text>
      <rect x="200" y="5" width="12" height="12" rx="2" fill="url(#stateChip)" stroke="#fff" stroke-width="0.4"/>
      <text x="218" y="15" fill="#1a1230" font-size="9.5" font-weight="600">S</text>
    </g>
    <g transform="translate(0,234)">
      <rect width="240" height="22" rx="3" fill="url(#deltaFill)" opacity="0.85"/>
      <text x="10" y="15" fill="#1a1230" font-size="11" font-weight="600">L10 · gated DeltaNet</text>
      <rect x="200" y="5" width="12" height="12" rx="2" fill="url(#stateChip)" stroke="#fff" stroke-width="0.4"/>
      <text x="218" y="15" fill="#1a1230" font-size="9.5" font-weight="600">S</text>
    </g>
    <g transform="translate(0,260)">
      <rect width="240" height="22" rx="3" fill="url(#deltaFill)" opacity="0.85"/>
      <text x="10" y="15" fill="#1a1230" font-size="11" font-weight="600">L11 · gated DeltaNet</text>
      <rect x="200" y="5" width="12" height="12" rx="2" fill="url(#stateChip)" stroke="#fff" stroke-width="0.4"/>
      <text x="218" y="15" fill="#1a1230" font-size="9.5" font-weight="600">S</text>
    </g>
    <g transform="translate(0,286)">
      <rect width="240" height="22" rx="3" fill="url(#attnFill)" opacity="0.9"/>
      <text x="10" y="15" fill="#062b34" font-size="11" font-weight="600">L12 · full attention</text>
      <g transform="translate(180,7)">
        <rect width="50" height="9" rx="1" fill="none" stroke="#062b34" stroke-width="0.6"/>
        <rect x="0" y="0" width="6" height="9" fill="url(#kvChip)"/>
        <rect x="7" y="0" width="6" height="9" fill="url(#kvChip)"/>
        <rect x="14" y="0" width="6" height="9" fill="url(#kvChip)"/>
        <rect x="21" y="0" width="6" height="9" fill="url(#kvChip)"/>
        <rect x="28" y="0" width="6" height="9" fill="url(#kvChip)"/>
        <rect x="35" y="0" width="6" height="9" fill="url(#kvChip)"/>
        <rect x="42" y="0" width="6" height="9" fill="url(#kvChip)"/>
      </g>
    </g>
    <!-- Continuation -->
    <g transform="translate(0,316)">
      <text x="120" y="10" fill="#8ea0b8" font-size="10" text-anchor="middle">… 36 more layers, same 3:1 pattern</text>
    </g>
  </g>

  <!-- Layer-stack legend -->
  <g transform="translate(36, 432)">
    <rect x="0" y="0" width="240" height="58" rx="4" fill="#162033" stroke="#2a3a55" stroke-width="0.5"/>
    <rect x="10" y="10" width="14" height="10" rx="2" fill="url(#deltaFill)"/>
    <text x="32" y="19" fill="#c8d1e0" font-size="10.5">gated DeltaNet · fixed-size state S</text>
    <rect x="10" y="26" width="14" height="10" rx="2" fill="url(#attnFill)"/>
    <text x="32" y="35" fill="#c8d1e0" font-size="10.5">full softmax attention · per-token KV</text>
    <text x="10" y="50" fill="#8ea0b8" font-size="9.5">3:1 ratio · 36 linear / 12 attention in a 48-layer stack</text>
  </g>

  <!-- ============ MIDDLE PANEL: KV plane ============ -->
  <g transform="translate(310, 86)">
    <text x="0" y="0" fill="#c8d1e0" font-size="12" font-weight="700">KV plane (attention layers)</text>
    <text x="0" y="14" fill="#8ea0b8" font-size="10">one entry per token per attention layer</text>
    <!-- A simple grid showing dense per-token KV -->
    <g transform="translate(0, 26)">
      <!-- 12 attention rows × 16 tokens of grid -->
      <!-- but we have 12 rows of attention (1 per attention layer) -->
      <!-- Let's draw 12 rows × 16 cols -->
      <g>
        <text x="0" y="-4" fill="#8ea0b8" font-size="9">tokens →</text>
      </g>
      <!-- 12 attention layers shown as rows, 16 tokens shown horizontally -->
      <g>
        <!-- Layer label column on left -->
        <g fill="#8ea0b8" font-size="9" text-anchor="end">
          <text x="-4" y="10">L4</text>
          <text x="-4" y="24">L8</text>
          <text x="-4" y="38">L12</text>
          <text x="-4" y="52">L16</text>
          <text x="-4" y="66">L20</text>
          <text x="-4" y="80">L24</text>
          <text x="-4" y="94">L28</text>
          <text x="-4" y="108">L32</text>
          <text x="-4" y="122">L36</text>
          <text x="-4" y="136">L40</text>
          <text x="-4" y="150">L44</text>
          <text x="-4" y="164">L48</text>
        </g>
        <!-- 12 rows × 16 cols of cells; each cell 11x11 with 1px gap -->
        <g>
          <!-- Generate cells: 12 rows × 16 cols starting at y = 0 -->
          <!-- Row y positions: 2, 16, 30, 44, 58, 72, 86, 100, 114, 128, 142, 156 -->
          <!-- We'll place cells at 12 distinct y rows -->
          <!-- For brevity, draw via rect repetition -->
          <!-- Row L4 -->
          <g transform="translate(2,2)" fill="url(#kvChip)">
            <rect x="0"   y="0" width="9" height="9" rx="1"/>
            <rect x="11"  y="0" width="9" height="9" rx="1"/>
            <rect x="22"  y="0" width="9" height="9" rx="1"/>
            <rect x="33"  y="0" width="9" height="9" rx="1"/>
            <rect x="44"  y="0" width="9" height="9" rx="1"/>
            <rect x="55"  y="0" width="9" height="9" rx="1"/>
            <rect x="66"  y="0" width="9" height="9" rx="1"/>
            <rect x="77"  y="0" width="9" height="9" rx="1"/>
            <rect x="88"  y="0" width="9" height="9" rx="1"/>
            <rect x="99"  y="0" width="9" height="9" rx="1"/>
            <rect x="110" y="0" width="9" height="9" rx="1"/>
            <rect x="121" y="0" width="9" height="9" rx="1"/>
            <rect x="132" y="0" width="9" height="9" rx="1"/>
            <rect x="143" y="0" width="9" height="9" rx="1"/>
            <rect x="154" y="0" width="9" height="9" rx="1"/>
            <rect x="165" y="0" width="9" height="9" rx="1"/>
          </g>
          <!-- Use <use> by replicating via small translation: simpler to inline 12 rows -->
          <g fill="url(#kvChip)">
            <g transform="translate(2,16)">
              <rect x="0"   y="0" width="9" height="9" rx="1"/><rect x="11" y="0" width="9" height="9" rx="1"/><rect x="22" y="0" width="9" height="9" rx="1"/><rect x="33" y="0" width="9" height="9" rx="1"/><rect x="44" y="0" width="9" height="9" rx="1"/><rect x="55" y="0" width="9" height="9" rx="1"/><rect x="66" y="0" width="9" height="9" rx="1"/><rect x="77" y="0" width="9" height="9" rx="1"/><rect x="88" y="0" width="9" height="9" rx="1"/><rect x="99" y="0" width="9" height="9" rx="1"/><rect x="110" y="0" width="9" height="9" rx="1"/><rect x="121" y="0" width="9" height="9" rx="1"/><rect x="132" y="0" width="9" height="9" rx="1"/><rect x="143" y="0" width="9" height="9" rx="1"/><rect x="154" y="0" width="9" height="9" rx="1"/><rect x="165" y="0" width="9" height="9" rx="1"/>
            </g>
            <g transform="translate(2,30)">
              <rect x="0"   y="0" width="9" height="9" rx="1"/><rect x="11" y="0" width="9" height="9" rx="1"/><rect x="22" y="0" width="9" height="9" rx="1"/><rect x="33" y="0" width="9" height="9" rx="1"/><rect x="44" y="0" width="9" height="9" rx="1"/><rect x="55" y="0" width="9" height="9" rx="1"/><rect x="66" y="0" width="9" height="9" rx="1"/><rect x="77" y="0" width="9" height="9" rx="1"/><rect x="88" y="0" width="9" height="9" rx="1"/><rect x="99" y="0" width="9" height="9" rx="1"/><rect x="110" y="0" width="9" height="9" rx="1"/><rect x="121" y="0" width="9" height="9" rx="1"/><rect x="132" y="0" width="9" height="9" rx="1"/><rect x="143" y="0" width="9" height="9" rx="1"/><rect x="154" y="0" width="9" height="9" rx="1"/><rect x="165" y="0" width="9" height="9" rx="1"/>
            </g>
            <g transform="translate(2,44)">
              <rect x="0"   y="0" width="9" height="9" rx="1"/><rect x="11" y="0" width="9" height="9" rx="1"/><rect x="22" y="0" width="9" height="9" rx="1"/><rect x="33" y="0" width="9" height="9" rx="1"/><rect x="44" y="0" width="9" height="9" rx="1"/><rect x="55" y="0" width="9" height="9" rx="1"/><rect x="66" y="0" width="9" height="9" rx="1"/><rect x="77" y="0" width="9" height="9" rx="1"/><rect x="88" y="0" width="9" height="9" rx="1"/><rect x="99" y="0" width="9" height="9" rx="1"/><rect x="110" y="0" width="9" height="9" rx="1"/><rect x="121" y="0" width="9" height="9" rx="1"/><rect x="132" y="0" width="9" height="9" rx="1"/><rect x="143" y="0" width="9" height="9" rx="1"/><rect x="154" y="0" width="9" height="9" rx="1"/><rect x="165" y="0" width="9" height="9" rx="1"/>
            </g>
            <g transform="translate(2,58)">
              <rect x="0"   y="0" width="9" height="9" rx="1"/><rect x="11" y="0" width="9" height="9" rx="1"/><rect x="22" y="0" width="9" height="9" rx="1"/><rect x="33" y="0" width="9" height="9" rx="1"/><rect x="44" y="0" width="9" height="9" rx="1"/><rect x="55" y="0" width="9" height="9" rx="1"/><rect x="66" y="0" width="9" height="9" rx="1"/><rect x="77" y="0" width="9" height="9" rx="1"/><rect x="88" y="0" width="9" height="9" rx="1"/><rect x="99" y="0" width="9" height="9" rx="1"/><rect x="110" y="0" width="9" height="9" rx="1"/><rect x="121" y="0" width="9" height="9" rx="1"/><rect x="132" y="0" width="9" height="9" rx="1"/><rect x="143" y="0" width="9" height="9" rx="1"/><rect x="154" y="0" width="9" height="9" rx="1"/><rect x="165" y="0" width="9" height="9" rx="1"/>
            </g>
            <g transform="translate(2,72)">
              <rect x="0"   y="0" width="9" height="9" rx="1"/><rect x="11" y="0" width="9" height="9" rx="1"/><rect x="22" y="0" width="9" height="9" rx="1"/><rect x="33" y="0" width="9" height="9" rx="1"/><rect x="44" y="0" width="9" height="9" rx="1"/><rect x="55" y="0" width="9" height="9" rx="1"/><rect x="66" y="0" width="9" height="9" rx="1"/><rect x="77" y="0" width="9" height="9" rx="1"/><rect x="88" y="0" width="9" height="9" rx="1"/><rect x="99" y="0" width="9" height="9" rx="1"/><rect x="110" y="0" width="9" height="9" rx="1"/><rect x="121" y="0" width="9" height="9" rx="1"/><rect x="132" y="0" width="9" height="9" rx="1"/><rect x="143" y="0" width="9" height="9" rx="1"/><rect x="154" y="0" width="9" height="9" rx="1"/><rect x="165" y="0" width="9" height="9" rx="1"/>
            </g>
            <g transform="translate(2,86)">
              <rect x="0"   y="0" width="9" height="9" rx="1"/><rect x="11" y="0" width="9" height="9" rx="1"/><rect x="22" y="0" width="9" height="9" rx="1"/><rect x="33" y="0" width="9" height="9" rx="1"/><rect x="44" y="0" width="9" height="9" rx="1"/><rect x="55" y="0" width="9" height="9" rx="1"/><rect x="66" y="0" width="9" height="9" rx="1"/><rect x="77" y="0" width="9" height="9" rx="1"/><rect x="88" y="0" width="9" height="9" rx="1"/><rect x="99" y="0" width="9" height="9" rx="1"/><rect x="110" y="0" width="9" height="9" rx="1"/><rect x="121" y="0" width="9" height="9" rx="1"/><rect x="132" y="0" width="9" height="9" rx="1"/><rect x="143" y="0" width="9" height="9" rx="1"/><rect x="154" y="0" width="9" height="9" rx="1"/><rect x="165" y="0" width="9" height="9" rx="1"/>
            </g>
            <g transform="translate(2,100)">
              <rect x="0"   y="0" width="9" height="9" rx="1"/><rect x="11" y="0" width="9" height="9" rx="1"/><rect x="22" y="0" width="9" height="9" rx="1"/><rect x="33" y="0" width="9" height="9" rx="1"/><rect x="44" y="0" width="9" height="9" rx="1"/><rect x="55" y="0" width="9" height="9" rx="1"/><rect x="66" y="0" width="9" height="9" rx="1"/><rect x="77" y="0" width="9" height="9" rx="1"/><rect x="88" y="0" width="9" height="9" rx="1"/><rect x="99" y="0" width="9" height="9" rx="1"/><rect x="110" y="0" width="9" height="9" rx="1"/><rect x="121" y="0" width="9" height="9" rx="1"/><rect x="132" y="0" width="9" height="9" rx="1"/><rect x="143" y="0" width="9" height="9" rx="1"/><rect x="154" y="0" width="9" height="9" rx="1"/><rect x="165" y="0" width="9" height="9" rx="1"/>
            </g>
            <g transform="translate(2,114)">
              <rect x="0"   y="0" width="9" height="9" rx="1"/><rect x="11" y="0" width="9" height="9" rx="1"/><rect x="22" y="0" width="9" height="9" rx="1"/><rect x="33" y="0" width="9" height="9" rx="1"/><rect x="44" y="0" width="9" height="9" rx="1"/><rect x="55" y="0" width="9" height="9" rx="1"/><rect x="66" y="0" width="9" height="9" rx="1"/><rect x="77" y="0" width="9" height="9" rx="1"/><rect x="88" y="0" width="9" height="9" rx="1"/><rect x="99" y="0" width="9" height="9" rx="1"/><rect x="110" y="0" width="9" height="9" rx="1"/><rect x="121" y="0" width="9" height="9" rx="1"/><rect x="132" y="0" width="9" height="9" rx="1"/><rect x="143" y="0" width="9" height="9" rx="1"/><rect x="154" y="0" width="9" height="9" rx="1"/><rect x="165" y="0" width="9" height="9" rx="1"/>
            </g>
            <g transform="translate(2,128)">
              <rect x="0"   y="0" width="9" height="9" rx="1"/><rect x="11" y="0" width="9" height="9" rx="1"/><rect x="22" y="0" width="9" height="9" rx="1"/><rect x="33" y="0" width="9" height="9" rx="1"/><rect x="44" y="0" width="9" height="9" rx="1"/><rect x="55" y="0" width="9" height="9" rx="1"/><rect x="66" y="0" width="9" height="9" rx="1"/><rect x="77" y="0" width="9" height="9" rx="1"/><rect x="88" y="0" width="9" height="9" rx="1"/><rect x="99" y="0" width="9" height="9" rx="1"/><rect x="110" y="0" width="9" height="9" rx="1"/><rect x="121" y="0" width="9" height="9" rx="1"/><rect x="132" y="0" width="9" height="9" rx="1"/><rect x="143" y="0" width="9" height="9" rx="1"/><rect x="154" y="0" width="9" height="9" rx="1"/><rect x="165" y="0" width="9" height="9" rx="1"/>
            </g>
            <g transform="translate(2,142)">
              <rect x="0"   y="0" width="9" height="9" rx="1"/><rect x="11" y="0" width="9" height="9" rx="1"/><rect x="22" y="0" width="9" height="9" rx="1"/><rect x="33" y="0" width="9" height="9" rx="1"/><rect x="44" y="0" width="9" height="9" rx="1"/><rect x="55" y="0" width="9" height="9" rx="1"/><rect x="66" y="0" width="9" height="9" rx="1"/><rect x="77" y="0" width="9" height="9" rx="1"/><rect x="88" y="0" width="9" height="9" rx="1"/><rect x="99" y="0" width="9" height="9" rx="1"/><rect x="110" y="0" width="9" height="9" rx="1"/><rect x="121" y="0" width="9" height="9" rx="1"/><rect x="132" y="0" width="9" height="9" rx="1"/><rect x="143" y="0" width="9" height="9" rx="1"/><rect x="154" y="0" width="9" height="9" rx="1"/><rect x="165" y="0" width="9" height="9" rx="1"/>
            </g>
            <g transform="translate(2,156)">
              <rect x="0"   y="0" width="9" height="9" rx="1"/><rect x="11" y="0" width="9" height="9" rx="1"/><rect x="22" y="0" width="9" height="9" rx="1"/><rect x="33" y="0" width="9" height="9" rx="1"/><rect x="44" y="0" width="9" height="9" rx="1"/><rect x="55" y="0" width="9" height="9" rx="1"/><rect x="66" y="0" width="9" height="9" rx="1"/><rect x="77" y="0" width="9" height="9" rx="1"/><rect x="88" y="0" width="9" height="9" rx="1"/><rect x="99" y="0" width="9" height="9" rx="1"/><rect x="110" y="0" width="9" height="9" rx="1"/><rect x="121" y="0" width="9" height="9" rx="1"/><rect x="132" y="0" width="9" height="9" rx="1"/><rect x="143" y="0" width="9" height="9" rx="1"/><rect x="154" y="0" width="9" height="9" rx="1"/><rect x="165" y="0" width="9" height="9" rx="1"/>
            </g>
          </g>
        </g>
      </g>
      <text x="0" y="195" fill="#8ea0b8" font-size="10">dense per-token KV · radix-tree-keyed prefix match works</text>
    </g>
  </g>

  <!-- ============ RIGHT PANEL: State plane ============ -->
  <g transform="translate(560, 86)">
    <text x="0" y="0" fill="#c8d1e0" font-size="12" font-weight="700">State plane (linear-attention layers)</text>
    <text x="0" y="14" fill="#8ea0b8" font-size="10">snapshot of S every 4096 tokens per linear layer</text>
    <g transform="translate(0, 26)">
      <!-- Layer label column on left -->
      <g fill="#8ea0b8" font-size="9" text-anchor="end">
        <text x="-4" y="10">L1</text>
        <text x="-4" y="24">L2</text>
        <text x="-4" y="38">L3</text>
        <text x="-4" y="52">L5</text>
        <text x="-4" y="66">L6</text>
        <text x="-4" y="80">L7</text>
        <text x="-4" y="94">L9</text>
        <text x="-4" y="108">L10</text>
        <text x="-4" y="122">L11</text>
        <text x="-4" y="136">L13</text>
        <text x="-4" y="150">L14</text>
        <text x="-4" y="164">L15</text>
      </g>
      <!-- Sparse markers: only at columns 0, 5, 10, 15 (every 5th column = "every 1024 tokens") -->
      <!-- Position guide track -->
      <g>
        <!-- horizontal track lines -->
        <g stroke="#1f2a40" stroke-width="0.5">
          <line x1="0" y1="6"   x2="176" y2="6"/>
          <line x1="0" y1="20"  x2="176" y2="20"/>
          <line x1="0" y1="34"  x2="176" y2="34"/>
          <line x1="0" y1="48"  x2="176" y2="48"/>
          <line x1="0" y1="62"  x2="176" y2="62"/>
          <line x1="0" y1="76"  x2="176" y2="76"/>
          <line x1="0" y1="90"  x2="176" y2="90"/>
          <line x1="0" y1="104" x2="176" y2="104"/>
          <line x1="0" y1="118" x2="176" y2="118"/>
          <line x1="0" y1="132" x2="176" y2="132"/>
          <line x1="0" y1="146" x2="176" y2="146"/>
          <line x1="0" y1="160" x2="176" y2="160"/>
        </g>
        <!-- 4 checkpoint columns (at token 0, 1024, 2048, 3072) shown vertically at x=2, 56, 110, 164 -->
        <g fill="url(#stateChip)" stroke="#fff" stroke-width="0.4">
          <!-- Each row gets 4 markers -->
          <!-- y positions: 2, 16, 30, 44, 58, 72, 86, 100, 114, 128, 142, 156 -->
          <!-- x positions: 2, 56, 110, 164  (~52px apart) -->
          <!-- Row 1 -->
          <rect x="2"   y="2"   width="11" height="9" rx="1.5"/><rect x="56"  y="2"   width="11" height="9" rx="1.5"/><rect x="110" y="2"   width="11" height="9" rx="1.5"/><rect x="164" y="2"   width="11" height="9" rx="1.5"/>
          <rect x="2"   y="16"  width="11" height="9" rx="1.5"/><rect x="56"  y="16"  width="11" height="9" rx="1.5"/><rect x="110" y="16"  width="11" height="9" rx="1.5"/><rect x="164" y="16"  width="11" height="9" rx="1.5"/>
          <rect x="2"   y="30"  width="11" height="9" rx="1.5"/><rect x="56"  y="30"  width="11" height="9" rx="1.5"/><rect x="110" y="30"  width="11" height="9" rx="1.5"/><rect x="164" y="30"  width="11" height="9" rx="1.5"/>
          <rect x="2"   y="44"  width="11" height="9" rx="1.5"/><rect x="56"  y="44"  width="11" height="9" rx="1.5"/><rect x="110" y="44"  width="11" height="9" rx="1.5"/><rect x="164" y="44"  width="11" height="9" rx="1.5"/>
          <rect x="2"   y="58"  width="11" height="9" rx="1.5"/><rect x="56"  y="58"  width="11" height="9" rx="1.5"/><rect x="110" y="58"  width="11" height="9" rx="1.5"/><rect x="164" y="58"  width="11" height="9" rx="1.5"/>
          <rect x="2"   y="72"  width="11" height="9" rx="1.5"/><rect x="56"  y="72"  width="11" height="9" rx="1.5"/><rect x="110" y="72"  width="11" height="9" rx="1.5"/><rect x="164" y="72"  width="11" height="9" rx="1.5"/>
          <rect x="2"   y="86"  width="11" height="9" rx="1.5"/><rect x="56"  y="86"  width="11" height="9" rx="1.5"/><rect x="110" y="86"  width="11" height="9" rx="1.5"/><rect x="164" y="86"  width="11" height="9" rx="1.5"/>
          <rect x="2"   y="100" width="11" height="9" rx="1.5"/><rect x="56"  y="100" width="11" height="9" rx="1.5"/><rect x="110" y="100" width="11" height="9" rx="1.5"/><rect x="164" y="100" width="11" height="9" rx="1.5"/>
          <rect x="2"   y="114" width="11" height="9" rx="1.5"/><rect x="56"  y="114" width="11" height="9" rx="1.5"/><rect x="110" y="114" width="11" height="9" rx="1.5"/><rect x="164" y="114" width="11" height="9" rx="1.5"/>
          <rect x="2"   y="128" width="11" height="9" rx="1.5"/><rect x="56"  y="128" width="11" height="9" rx="1.5"/><rect x="110" y="128" width="11" height="9" rx="1.5"/><rect x="164" y="128" width="11" height="9" rx="1.5"/>
          <rect x="2"   y="142" width="11" height="9" rx="1.5"/><rect x="56"  y="142" width="11" height="9" rx="1.5"/><rect x="110" y="142" width="11" height="9" rx="1.5"/><rect x="164" y="142" width="11" height="9" rx="1.5"/>
          <rect x="2"   y="156" width="11" height="9" rx="1.5"/><rect x="56"  y="156" width="11" height="9" rx="1.5"/><rect x="110" y="156" width="11" height="9" rx="1.5"/><rect x="164" y="156" width="11" height="9" rx="1.5"/>
        </g>
        <!-- Token boundary annotations -->
        <g fill="#8ea0b8" font-size="9" text-anchor="middle">
          <text x="7" y="180">tok 0</text>
          <text x="61" y="180">tok 4096</text>
          <text x="115" y="180">tok 8192</text>
          <text x="170" y="180">tok 12288</text>
        </g>
      </g>
      <text x="0" y="200" fill="#8ea0b8" font-size="10">36 layers × 1 MB/layer/snapshot · 576 MB at 64k context</text>
    </g>
  </g>

  <!-- Connector arrows from layer stack to planes -->
  <g stroke="#475670" stroke-width="1" fill="none" stroke-dasharray="2,3">
    <!-- From each attention block (L4, L8, L12) to KV plane -->
    <path d="M 280 178 L 308 130"/>  <!-- L4 (y at 96+78+11=185 from layer pane center) -->
    <path d="M 280 282 L 308 130"/>  <!-- L8 -->
    <path d="M 280 386 L 308 130"/>  <!-- L12 -->
    <!-- From a delta block to State plane -->
    <path d="M 280 100 L 558 130"/>  <!-- L1 -->
    <path d="M 280 308 L 558 130"/>  <!-- L9 -->
  </g>

  <!-- ============ BOTTOM: Timeline comparison ============ -->
  <g transform="translate(36, 510)">
    <text x="0" y="0" fill="#c8d1e0" font-size="12" font-weight="700">Second-turn prefill cost on Radeon AI PRO R9700, 4,800-token prefix</text>

    <!-- KV-only timeline -->
    <g transform="translate(0, 14)">
      <text x="0" y="14" fill="#e85d75" font-size="11" font-weight="600">KV plane only</text>
      <rect x="120" y="2" width="700" height="18" rx="3" fill="url(#badBar)"/>
      <text x="125" y="16" fill="#1a0a10" font-size="11" font-weight="700">27.0 s · full re-prefill of every linear layer</text>
    </g>

    <!-- KV + state plane timeline -->
    <g transform="translate(0, 40)">
      <text x="0" y="14" fill="#5dbb89" font-size="11" font-weight="600">KV + state plane</text>
      <rect x="120" y="2" width="11" height="18" rx="3" fill="url(#goodBar)"/>
      <text x="138" y="16" fill="#c8d1e0" font-size="11" font-weight="600">0.4 s · partial replay from nearest 4096-tok checkpoint</text>
    </g>
  </g>
</svg>
